<svg xmlns="http://www.w3.org/2000/svg" width="1200" height="630" viewBox="0 0 1200 630" role="img" aria-labelledby="title desc">
  <title id="title">Pradeep Pandey Software Engineering Portfolio</title>
  <desc id="desc">Portfolio preview image for Pradeep Pandey.</desc>
  <rect width="1200" height="630" fill="#f8fafc"/>
  <path d="M0 120h1200M0 240h1200M0 360h1200M0 480h1200M120 0v630M240 0v630M360 0v630M480 0v630M600 0v630M720 0v630M840 0v630M960 0v630M1080 0v630" stroke="#e2e8f0" stroke-width="1"/>
  <rect x="96" y="86" width="1008" height="458" rx="28" fill="#ffffff" stroke="#cbd5e1"/>
  <text x="140" y="190" fill="#f9735b" font-family="Arial, sans-serif" font-size="28" font-weight="700" letter-spacing="5">SOFTWARE ENGINEERING PORTFOLIO</text>
  <text x="140" y="288" fill="#101522" font-family="Arial, sans-serif" font-size="68" font-weight="800">Pradeep Pandey</text>
  <text x="140" y="365" fill="#334155" font-family="Arial, sans-serif" font-size="34">Full stack, cloud, databases, and C++ systems</text>
  <rect x="140" y="420" width="184" height="52" rx="12" fill="#101522"/>
  <text x="170" y="455" fill="#ffffff" font-family="Arial, sans-serif" font-size="22" font-weight="700">React + AWS</text>
  <rect x="344" y="420" width="160" height="52" rx="12" fill="#dbeafe"/>
  <text x="376" y="455" fill="#1d4ed8" font-family="Arial, sans-serif" font-size="22" font-weight="700">IIIF 3D</text>
  <rect x="524" y="420" width="204" height="52" rx="12" fill="#ccfbf1"/>
  <text x="558" y="455" fill="#0f766e" font-family="Arial, sans-serif" font-size="22" font-weight="700">C++ Systems</text>
</svg>
